<svg xmlns="http://www.w3.org/2000/svg" xmlns:xlink="http://www.w3.org/1999/xlink" viewBox="0 0 529.134 336.378" width="529.13" height="336.38"><defs><path d="M133.33.41l4.97.51 4.91.7 4.84.89 4.77 1.08 4.71 1.26 4.62 1.44 4.55 1.62 4.47 1.79 4.37 1.96 4.29 2.12 4.19 2.28 4.09 2.43 3.99 2.59 3.88 2.73 3.77 2.88 3.65 3.01 3.54 3.16 3.41 3.28 3.28 3.41 3.15 3.53 3.02 3.66 2.88 3.77 2.73 3.88 2.59 3.98 2.43 4.1 2.28 4.19 2.12 4.28 1.96 4.38 1.79 4.47 1.62 4.54 1.44 4.63 1.26 4.71 1.08 4.77.89 4.84.71 4.91.5 4.96.31 5.03.1 5.07v1.33l-.02 1.32-.04 1.32-.05 1.32-.06 1.32-.07 1.31-.09 1.31-.1 1.3-.12 1.31-.13 1.3-.14 1.29-.15 1.29-.17 1.29-.19 1.29-.19 1.28-.21 1.27-.22 1.28-.24 1.27-.25 1.27-.26 1.26-.28 1.26-.29 1.25-.3 1.25-.32 1.25-.33 1.24-.35 1.24-.35 1.23-.37 1.23-.39 1.23-.39 1.22-.41 1.22-.43 1.21-.43 1.21-.46 1.21-.46 1.2-.48 1.19-.49 1.19-.5 1.19-.52 1.18-.53 1.18-2.36 5.06-2.46 5.07-2.56 5.08-2.64 5.07-2.72 5.07-2.8 5.06-2.86 5.04-2.92 5.02-2.98 4.99-3.02 4.96-3.06 4.92-3.1 4.88-3.12 4.83-3.14 4.78-3.16 4.73-3.17 4.66-3.17 4.59-3.16 4.51-3.15 4.44-3.13 4.36-3.1 4.27-3.08 4.17-3.03 4.08-2.99 3.97-2.94 3.86-2.88 3.75-2.82 3.63-2.74 3.5-2.67 3.37-2.58 3.24-2.5 3.1-2.39 2.96-2.29 2.8-2.18 2.65-2.07 2.49-1.94 2.33-1.81 2.15-1.67 1.98-1.53 1.79-1.38 1.61-.01.02-.02.02-.02.02-.01.02-.02.02-.02.02-.02.02-.01.01-.02.02-.02.02-.01.02-.02.02-.02.02-.02.02-.01.01-.02.02-.02.02-.02.02-.02.02-.01.01-.02.02-.02.02-.02.02-.02.02-.01.01-.02.02-.02.02-.02.02-.02.01-.02.02-.01.02-.02.01-.02.02-.02.02-.02.02-.02.01-.02.02-.02.02-.02.01-.01.02-.22.18-.23.17-.22.16-.24.15-.23.14-.24.13-.25.11-.25.11-.25.1-.25.09-.26.07-.25.07-.26.05-.26.05-.27.04-.26.02-.26.02H123l-.26-.01-.26-.03-.27-.03-.26-.05-.25-.05-.26-.07-.25-.07-.25-.08-.25-.1-.25-.1-.24-.12-.24-.12-.23-.13-.23-.15-.22-.15-.22-.16-.22-.17-.21-.18-.2-.2-.19-.2-.19-.21-1.38-1.61-1.53-1.79-1.68-1.98-1.81-2.15-1.94-2.33-2.06-2.49-2.18-2.65-2.29-2.8-2.4-2.96-2.49-3.1-2.58-3.24-2.67-3.37-2.75-3.51-2.81-3.63-2.88-3.74-2.94-3.87-2.99-3.97-3.04-4.07-3.07-4.18-3.11-4.26-3.13-4.36-3.15-4.44-3.16-4.52-3.17-4.59-3.16-4.66-3.16-4.72-3.14-4.78-3.13-4.83-3.09-4.88-3.07-4.92-3.02-4.96-2.97-4.99-2.92-5.02-2.86-5.04-2.8-5.06-2.72-5.07-2.64-5.07-2.56-5.08-2.46-5.07-2.36-5.06-.53-1.18-.52-1.18-.5-1.19-.49-1.19-.48-1.19-.46-1.2-.45-1.21-.44-1.21-.42-1.21-.41-1.22-.4-1.22-.38-1.23-.37-1.23-.36-1.23-.34-1.24-.33-1.24-.32-1.25-.31-1.25-.29-1.25-.27-1.26-.27-1.26-.25-1.27-.23-1.27-.23-1.28-.2-1.27-.2-1.28-.18-1.29-.17-1.29-.16-1.29-.14-1.29-.13-1.3-.12-1.31-.1-1.3-.09-1.31-.07-1.31-.06-1.32-.05-1.32-.03-1.32-.02-1.32-.01-1.33.1-5.07.31-5.03.51-4.96.7-4.91.89-4.84 1.08-4.77 1.26-4.71 1.44-4.63 1.62-4.54 1.79-4.47 1.96-4.38 2.12-4.28 2.28-4.19 2.43-4.1 2.59-3.98 2.73-3.88 2.88-3.77 3.01-3.66 3.16-3.53 3.28-3.41 3.41-3.28 3.53-3.16 3.66-3.01 3.77-2.88 3.88-2.73 3.98-2.59 4.09-2.43 4.19-2.28 4.29-2.12 4.38-1.96 4.46-1.79 4.55-1.62 4.63-1.44 4.7-1.26 4.78-1.08 4.84-.89 4.9-.7 4.97-.51 5.02-.31 5.07-.1 5.07.1 5.02.31zM118 59.43l-2.58.27-2.55.36-2.51.47-2.48.56-2.45.65-2.4.75-2.36.84-2.32.93-2.28 1.02-2.22 1.1-2.18 1.18-2.13 1.27-2.07 1.34-2.01 1.42-1.96 1.5-1.9 1.56-1.83 1.64L77.99 78l-1.7 1.77-1.64 1.83-1.56 1.9-1.5 1.96-1.42 2.01-1.34 2.08-1.27 2.12-1.18 2.18-1.1 2.22-1.02 2.28-.93 2.32-.84 2.36-.75 2.4-.65 2.45-.56 2.48-.47 2.51-.36 2.55-.27 2.58-.15 2.61-.06 2.63.06 2.64.15 2.61.27 2.58.36 2.54.47 2.52.56 2.48.65 2.44.75 2.41.84 2.36.93 2.32 1.02 2.27 1.1 2.23 1.18 2.18 1.27 2.12 1.34 2.07 1.42 2.02 1.5 1.96 1.56 1.89 1.64 1.84 1.7 1.77 1.78 1.71 1.83 1.63 1.9 1.57 1.96 1.49 2.01 1.42 2.07 1.35 2.13 1.26 2.18 1.19 2.22 1.1 2.28 1.01 2.32.93 2.36.84 2.4.75 2.45.66 2.48.56 2.51.46 2.55.37 2.58.26 2.61.16 2.63.05 2.64-.05 2.6-.16 2.58-.26 2.55-.37 2.52-.46 2.48-.56 2.44-.66 2.41-.75 2.36-.84 2.32-.93 2.27-1.01 2.23-1.1 2.17-1.19 2.13-1.26 2.07-1.35 2.02-1.42 1.95-1.49 1.9-1.57 1.84-1.63 1.77-1.71 1.71-1.77 1.63-1.84 1.57-1.89 1.49-1.96 1.42-2.02 1.35-2.07 1.26-2.12 1.19-2.18 1.1-2.23 1.01-2.27.93-2.32.84-2.36.75-2.41.66-2.44.56-2.48.46-2.52.37-2.54.26-2.58.16-2.61.05-2.64-.05-2.63-.16-2.61-.27-2.58-.36-2.55-.46-2.51-.56-2.48-.66-2.45-.75-2.4-.84-2.36-.93-2.32-1.02-2.28-1.1-2.22-1.18-2.18-1.27-2.12-1.34-2.08-1.42-2.01-1.49-1.96-1.57-1.9-1.64-1.83-1.7-1.77-1.77-1.71-1.84-1.64-1.9-1.56-1.96-1.5-2.01-1.42-2.07-1.34-2.13-1.27-2.17-1.18-2.23-1.1-2.27-1.02-2.32-.93-2.37-.84-2.4-.75-2.44-.65-2.48-.56-2.52-.47-2.55-.36-2.58-.27-2.6-.15-2.64-.06-2.63.06-2.61.15z" id="a"/><path d="M416.79.41l4.92.5 4.88.69 4.8.89 4.74 1.07 4.67 1.26 4.6 1.43 4.51 1.6 4.44 1.78 4.34 1.94 4.26 2.11 4.16 2.26 4.06 2.42 3.96 2.57 3.85 2.71 3.75 2.86 3.62 2.99 3.51 3.13 3.39 3.26 3.26 3.39 3.13 3.51 2.99 3.62 2.86 3.75L508.2 54l2.57 3.96 2.42 4.06 2.26 4.16 2.11 4.26 1.94 4.34 1.78 4.43 1.6 4.52 1.43 4.6 1.26 4.67 1.07 4.74.89 4.8.69 4.88.51 4.92.3 4.99.1 5.04v1.31l-.02 1.32-.04 1.31-.04 1.31-.06 1.31-.08 1.3-.09 1.3-.1 1.3-.11 1.29-.13 1.29-.14 1.29-.16 1.28-.16 1.28-.18 1.27-.2 1.28-.21 1.26-.22 1.27-.23 1.26-.25 1.26-.26 1.25-.28 1.25-.29 1.25-.3 1.24-.31 1.24-.33 1.23-.34 1.23-.36 1.22-.36 1.23-.38 1.21-.4 1.22-.41 1.21-.42 1.2-.43 1.2-.45 1.2-.46 1.19-.47 1.18-.49 1.19-.5 1.17-.51 1.18-.53 1.16-2.34 5.03-2.45 5.04-2.54 5.04-2.62 5.04-2.7 5.03-2.78 5.02-2.84 5-2.9 4.99-2.95 4.95-3 4.93-3.04 4.88-3.08 4.85-3.1 4.8-3.12 4.74-3.14 4.69-3.14 4.63-3.15 4.55-3.13 4.49-3.13 4.41-3.11 4.32-3.08 4.24-3.05 4.14-3.02 4.05-2.97 3.94-2.91 3.84-2.86 3.72-2.8 3.6-2.73 3.48-2.64 3.35-2.57 3.22-2.47 3.07-2.38 2.94-2.28 2.78-2.16 2.63-2.05 2.48-1.93 2.3-1.79 2.14-1.66 1.96-1.52 1.79-1.37 1.6-.02.01-.02.02-.01.02-.02.02-.02.02-.01.02-.02.02-.02.02-.01.01-.02.02-.02.02-.01.02-.02.02-.02.02-.02.01-.01.02-.02.02-.02.02-.02.02-.01.01-.02.02-.02.02-.02.02-.02.01-.01.02-.02.02-.02.02-.02.01-.02.02-.02.02-.01.02-.02.01-.02.02-.02.02-.02.01-.02.02-.02.02-.02.01-.01.02-.02.02-.22.18-.22.16-.23.16-.23.15-.23.14-.24.13-.25.11-.24.11-.25.1-.25.08-.26.08-.25.06-.26.06-.26.05-.26.03-.26.03-.26.01-.26.01h-.26l-.27-.02-.26-.02-.25-.04-.26-.04-.26-.06-.25-.06-.26-.07-.25-.09-.24-.09-.25-.1-.24-.12-.23-.12-.23-.13-.23-.14-.22-.15-.22-.17-.21-.17-.21-.18-.2-.19-.19-.2-.19-.2-1.37-1.6-1.52-1.79-1.66-1.96-1.8-2.14-1.93-2.31-2.05-2.47-2.16-2.63-2.28-2.78-2.37-2.94-2.48-3.08-2.56-3.21-2.65-3.35-2.73-3.48-2.79-3.6-2.87-3.73-2.91-3.83-2.97-3.94-3.02-4.05-3.05-4.14-3.08-4.24-3.11-4.33-3.13-4.4-3.13-4.49-3.15-4.56-3.14-4.62-3.14-4.69-3.12-4.75-3.1-4.79-3.07-4.85-3.04-4.89-3-4.92-2.96-4.96-2.9-4.98-2.84-5-2.77-5.02-2.7-5.03-2.63-5.04-2.53-5.04-2.45-5.04-2.34-5.03-.53-1.16-.51-1.18-.5-1.17-.49-1.19-.47-1.18-.46-1.19-.45-1.2-.43-1.2-.42-1.2-.41-1.21-.39-1.22-.39-1.21-.36-1.23-.36-1.22-.34-1.23-.33-1.23-.31-1.24-.3-1.24-.29-1.25-.28-1.25-.26-1.25-.25-1.26-.23-1.26-.22-1.27-.21-1.26-.2-1.28-.18-1.27-.17-1.28-.15-1.28-.14-1.29-.13-1.29-.11-1.29-.1-1.3-.09-1.3-.08-1.3-.06-1.31-.04-1.31-.04-1.31-.02-1.32-.01-1.31.11-5.04.3-4.99.5-4.92.7-4.88.89-4.8 1.07-4.74 1.25-4.67 1.43-4.6 1.61-4.52 1.78-4.43 1.94-4.34 2.1-4.26 2.27-4.16 2.41-4.06 2.57-3.96 2.72-3.85 2.85-3.75 3-3.62 3.13-3.51 3.26-3.39 3.38-3.26 3.51-3.13 3.63-2.99 3.74-2.86 3.85-2.71 3.96-2.57 4.06-2.42 4.16-2.26 4.26-2.11 4.34-1.94 4.44-1.78 4.51-1.6 4.6-1.43 4.67-1.26 4.74-1.07 4.8-.89 4.87-.69 4.93-.5 4.99-.31 5.03-.1 5.04.1 4.99.31zm-15.23 58.6l-2.56.26-2.53.36-2.5.46-2.46.56-2.43.65-2.38.74-2.35.84-2.3.92-2.26 1.01-2.21 1.09-2.16 1.18-2.11 1.26-2.06 1.33-2 1.41-1.94 1.48-1.89 1.56-1.82 1.62-1.76 1.7-1.69 1.76-1.63 1.82-1.55 1.88-1.49 1.95-1.41 2-1.33 2.05-1.26 2.11-1.17 2.17-1.09 2.21-1.01 2.25-.93 2.31-.83 2.34-.74 2.39-.66 2.43-.55 2.46-.46 2.5-.36 2.53-.27 2.56-.15 2.59-.06 2.61.06 2.62.15 2.59.27 2.56.36 2.53.46 2.5.55 2.46.66 2.42.74 2.39.83 2.35.93 2.3 1.01 2.26 1.09 2.21 1.17 2.16 1.26 2.11 1.33 2.05 1.41 2.01 1.49 1.94 1.55 1.88 1.63 1.83 1.69 1.76 1.76 1.69 1.82 1.62 1.89 1.56 1.94 1.48 2 1.41 2.06 1.34 2.11 1.25 2.16 1.18 2.21 1.09 2.26 1.01 2.3.92 2.35.84 2.38.74 2.43.65 2.46.56 2.5.46 2.53.36 2.56.26 2.59.16 2.61.05 2.62-.05 2.59-.16 2.56-.26 2.53-.36 2.5-.46 2.46-.56 2.43-.65 2.38-.74 2.35-.84 2.3-.92 2.26-1.01 2.21-1.09 2.16-1.18 2.11-1.25 2.06-1.34 2-1.41 1.94-1.48 1.89-1.56 1.82-1.62 1.76-1.69 1.69-1.76 1.63-1.83 1.55-1.88 1.49-1.94 1.41-2.01 1.33-2.05 1.26-2.11 1.17-2.16 1.1-2.21 1-2.26.93-2.3.83-2.35.74-2.39.66-2.42.55-2.46.46-2.5.36-2.53.26-2.56.16-2.59.06-2.62-.06-2.61-.16-2.59-.26-2.56-.36-2.53-.46-2.5-.56-2.46-.65-2.43-.74-2.39-.84-2.34-.92-2.31-1.01-2.25-1.09-2.21-1.18-2.17-1.25-2.11-1.34-2.05-1.41-2-1.48-1.95-1.55-1.88-1.63-1.82-1.69-1.76-1.76-1.7-1.82-1.62-1.89-1.56-1.94-1.48-2-1.41-2.06-1.33-2.11-1.26-2.16-1.18-2.21-1.09-2.26-1.01-2.3-.92-2.35-.84-2.38-.74-2.43-.65-2.46-.56-2.5-.46-2.53-.36-2.56-.26-2.59-.16-2.62-.05-2.61.05-2.59.16z" id="b"/></defs><use xlink:href="#a"/><use xlink:href="#b" fill="#48696b"/></svg>