<svg xmlns="http://www.w3.org/2000/svg" width="362.041" height="108.122"><rect width="100%" height="100%" fill="none"/><g class="currentLayer"><path d="M36.256 9.02C16.422 9.02.284 25.158.284 44.994c0 5.174 1.06 10.114 3.146 14.684 8.994 19.681 26.238 40.46 31.31 46.36a2.003 2.003 0 0 0 3.034 0c5.07-5.899 22.314-26.677 31.311-46.36 2.088-4.57 3.146-9.51 3.146-14.684C72.23 25.158 56.091 9.02 36.256 9.02zm0 54.66c-10.303 0-18.686-8.384-18.686-18.687 0-10.304 8.383-18.687 18.686-18.687s18.686 8.383 18.686 18.687c.001 10.303-8.382 18.686-18.686 18.686z" fill="#1f2d2e"/><path d="M321.875 8.966c-19.834 0-35.972 16.138-35.972 35.974 0 5.174 1.06 10.114 3.146 14.684 8.994 19.681 26.238 40.46 31.31 46.359a2.003 2.003 0 0 0 3.034 0c5.07-5.898 22.314-26.676 31.311-46.359 2.088-4.57 3.146-9.51 3.146-14.684-.002-19.836-16.14-35.974-35.975-35.974zm0 54.659c-10.303 0-18.686-8.383-18.686-18.686 0-10.304 8.383-18.687 18.686-18.687s18.686 8.383 18.686 18.687c.001 10.303-8.382 18.686-18.686 18.686z" fill="#48696b" class="selected"/></g></svg>