<svg xmlns="http://www.w3.org/2000/svg" width="455.6" height="137.2"><rect width="100%" height="100%" fill="none"/><g class="currentLayer"><path d="M145.293 24.971a4.61 4.61 0 0 0-3.723-1.892H37.902c-.2 0-.401.012-.594.038L33.04 10.82a4.612 4.612 0 0 0-2.667-2.779L8.872-.406a4.612 4.612 0 0 0-5.975 2.603A4.61 4.61 0 0 0 5.5 8.17l19.53 7.672 23.903 68.9a3.816 3.816 0 0 0-2.357 2.31l-6.91 19.198a3.833 3.833 0 0 0 .471 3.508 3.84 3.84 0 0 0 3.14 1.632h3.55c-2.2 2.447-3.55 5.67-3.55 9.215 0 7.622 6.202 13.823 13.823 13.823s13.823-6.2 13.823-13.823c0-3.544-1.35-6.768-3.55-9.215H97.51c-2.2 2.447-3.55 5.67-3.55 9.215 0 7.622 6.2 13.823 13.823 13.823 7.622 0 13.822-6.2 13.822-13.823 0-3.544-1.35-6.768-3.549-9.215h4.317a3.84 3.84 0 1 0 0-7.68H48.741l4.28-11.888c.553.232 1.15.37 1.775.37h67.576a4.605 4.605 0 0 0 4.387-3.2l19.198-59.9a4.605 4.605 0 0 0-.664-4.122zM57.1 126.75c-3.388 0-6.143-2.755-6.143-6.143s2.755-6.143 6.143-6.143 6.143 2.755 6.143 6.143-2.755 6.143-6.143 6.143zm50.682 0c-3.388 0-6.143-2.755-6.143-6.143s2.755-6.143 6.143-6.143 6.143 2.755 6.143 6.143-2.755 6.143-6.143 6.143zm24.152-84.088h-23.512V32.294h26.834l-3.322 10.367zm-6.77 21.118h-16.742V51.876h20.557l-3.815 11.903zm-47.203 0V51.876h21.246V63.78H77.961zm21.246 9.216v9.983H77.961v-9.983h21.246zm-51.923-21.12h21.463V63.78H51.414l-4.13-11.903zm30.677-9.215V32.294h21.246v10.367H77.961zm-9.215-10.367v10.367h-24.66L40.49 32.294h28.256zm-14.134 40.7h14.134v9.984H58.075l-3.463-9.983zm53.81 9.984v-9.983h13.79l-3.2 9.983h-10.59z" fill="#1f2d2e"/><path d="M447.693 24.171a4.61 4.61 0 0 0-3.723-1.892H340.302c-.2 0-.401.012-.594.038L335.44 10.02a4.612 4.612 0 0 0-2.667-2.779l-21.502-8.446a4.612 4.612 0 0 0-5.975 2.603A4.61 4.61 0 0 0 307.9 7.37l19.53 7.672 23.903 68.9a3.816 3.816 0 0 0-2.356 2.31l-6.912 19.198a3.833 3.833 0 0 0 .472 3.508 3.84 3.84 0 0 0 3.14 1.632h3.55c-2.2 2.447-3.55 5.67-3.55 9.215 0 7.622 6.202 13.823 13.823 13.823s13.823-6.2 13.823-13.823c0-3.544-1.35-6.768-3.55-9.215h30.137c-2.2 2.447-3.55 5.67-3.55 9.215 0 7.622 6.2 13.823 13.823 13.823 7.622 0 13.822-6.2 13.822-13.823 0-3.544-1.35-6.768-3.549-9.215h4.317a3.84 3.84 0 1 0 0-7.68h-73.632l4.28-11.888c.553.232 1.15.37 1.775.37h67.576a4.605 4.605 0 0 0 4.387-3.2l19.198-59.9a4.605 4.605 0 0 0-.664-4.122zM359.5 125.95c-3.388 0-6.143-2.755-6.143-6.143s2.755-6.143 6.143-6.143 6.144 2.755 6.144 6.143-2.756 6.143-6.144 6.143zm50.682 0c-3.388 0-6.143-2.755-6.143-6.143s2.755-6.143 6.143-6.143 6.143 2.755 6.143 6.143-2.755 6.143-6.143 6.143zm24.152-84.088h-23.512V31.494h26.834l-3.322 10.367zm-6.77 21.118h-16.742V51.076h20.557l-3.815 11.903zm-47.203 0V51.076h21.246V62.98h-21.246zm21.246 9.216v9.983h-21.246v-9.983h21.246zm-51.923-21.119h21.463V62.98h-17.333l-4.13-11.903zm30.677-9.215V31.494h21.246v10.367h-21.246zm-9.215-10.367v10.367h-24.66l-3.596-10.367h28.256zm-14.134 40.7h14.134v9.984h-10.671l-3.463-9.983zm53.81 9.984v-9.983h13.79l-3.2 9.983h-10.59z" fill="#d2f9f9"/></g></svg>