<svg xmlns="http://www.w3.org/2000/svg" xmlns:xlink="http://www.w3.org/1999/xlink" width="640" height="640"><defs><path d="M9.48.04l.34.03.34.06.34.06.34.08.34.1.34.11.33.12 40.49 15.91.18.07.17.07.17.08.17.08.17.09.16.09.17.09.16.1.16.1.15.1.16.1.15.11.15.11.14.12.15.12.14.12.14.12.13.13.13.13.13.13.13.14.13.14.12.14.11.14.12.15.11.14.11.15.11.16.1.15.1.16.09.16.1.16.09.17.08.16.09.17.07.17.08.18.07.17.07.18.06.18L65.4 44.9l.02-.01h.06l.03-.01h.05l.03-.01h.05l.03-.01h.09l.02-.01h.11l.03-.01h.14l.03-.01h.28l.03-.01h195.33l.2.01h.21l.21.02.2.01.21.03.2.02.2.03.2.04.2.04.2.05.2.05.19.05.2.06.19.06.19.07.19.07.19.08.18.08.19.09.18.09.18.09.17.1.18.1.17.11.17.11.17.11.16.12.16.12.16.13.16.13.15.13.15.14.15.14.15.14.14.15.14.15.13.16.13.16.13.16.13.17.12.17.11.17.11.17.11.18.1.18.1.18.09.18.09.18.09.19.08.18.07.19.08.19.06.19.06.2.06.19.05.2.05.19.05.2.04.2.03.2.03.2.03.2.02.2.01.2.01.2.01.21v.4l-.01.21-.01.2-.02.2-.02.2-.03.21-.03.2-.04.2-.04.2-.05.2-.05.2-.05.2-.06.2-36.15 112.79-.1.27-.09.26-.11.26-.11.25-.13.25-.12.24-.14.24-.14.24-.15.22-.16.23-.16.21-.17.22-.18.2-.18.2-.19.2-.19.18-.2.18-.21.18-.21.17-.21.16-.22.16-.23.14-.23.15-.23.13-.24.13-.24.12-.25.11-.25.1-.25.1-.26.09-.26.08-.26.07-.26.07-.27.06-.27.05-.28.03-.27.04-.28.02-.28.01-.29.01H98.24l-.09-.01h-.17l-.09-.01h-.09l-.09-.01h-.08l-.09-.01-.08-.01-.09-.01-.09-.01-.08-.01-.09-.02-.08-.01-.09-.01-.08-.02-.09-.01-.08-.02-.08-.02-.09-.02-.08-.02-.08-.02-.09-.02-.08-.02-.08-.02-.08-.02-.09-.03-.08-.02-.08-.03-.08-.02-.08-.03-.08-.03-.08-.03-.08-.02-.08-.03-.08-.04-.08-.03-.08-.03-.07-.03-8.06 22.39h138.94l.3.02.29.03.29.04.28.05.28.07.28.07.27.09.27.09.26.11.26.11.25.12.24.14.24.14.24.15.23.16.22.17.21.18.21.18.2.19.19.2.19.21.17.22.17.22.16.22.15.24.15.24.13.24.12.26.12.25.1.26.1.27.08.27.08.28.06.28.05.28.04.29.03.29.02.3.01.3-.01.29-.02.3-.03.29-.04.29-.05.28-.06.28-.08.28-.08.27-.1.27-.1.26-.12.26-.12.25-.13.25-.15.24-.15.23-.16.23-.17.22-.17.21-.19.21-.19.2-.2.19-.21.19-.21.17-.22.17-.23.16-.23.15-.24.15-.25.13-.25.12-.26.12-.26.1-.27.1-.27.08-.28.08-.28.06-.28.05-.29.04-.29.03-.3.02-.29.01h-8.13l.31.35.3.35.29.36.29.36.28.37.28.38.27.38.26.38.26.39.25.39.24.4.24.41.23.4.22.42.21.41.21.42.2.43.19.43.19.43.17.44.17.44.16.44.16.45.14.46.14.45.13.46.12.46.11.47.1.47.1.47.09.48.07.47.07.49.06.48.05.49.05.49.03.49.02.49.02.5v.5l-.02 1.07-.07 1.06-.1 1.05-.15 1.04-.19 1.02-.23 1.01-.26.99-.31.98-.34.96-.38.94-.41.93-.45.9-.48.89-.51.86-.55.84-.58.82-.61.8-.63.77-.67.75-.69.72-.72.69-.75.66-.77.64-.8.61-.81.58-.85.54-.86.52-.89.48-.9.45-.93.41-.94.38-.96.34-.98.3-.99.27-1.01.23-1.02.19-1.04.14-1.05.11-1.06.07-1.07.02-1.07-.02-1.06-.07-1.05-.11-1.03-.14-1.03-.19-1.01-.23-.99-.27-.98-.3-.96-.34-.94-.38-.92-.41-.91-.45-.88-.48-.87-.52-.84-.54-.82-.58-.8-.61-.77-.64-.74-.66-.72-.69-.7-.72-.66-.75-.64-.77-.61-.8-.58-.82-.54-.84-.52-.86-.48-.89-.44-.9-.42-.93-.38-.94-.34-.96-.3-.98-.27-.99-.23-1.01-.19-1.02-.14-1.04-.11-1.05-.06-1.06-.03-1.07.01-.5.01-.5.03-.49.03-.49.04-.49.05-.49.06-.48.07-.49.08-.47.09-.48.09-.47.1-.47.12-.47.12-.46.13-.46.13-.45.15-.46.15-.45.16-.44.17-.44.18-.44.18-.43.2-.43.2-.43.2-.42.22-.41.22-.42.23-.4.23-.41.25-.4.25-.39.25-.39.27-.38.27-.38.27-.38.28-.37.29-.36.3-.36.3-.35.31-.35h-56.75l.31.35.3.35.3.36.29.36.28.37.27.38.27.38.27.38.25.39.25.39.25.4.23.41.23.4.22.42.22.41.2.42.2.43.19.43.19.43.18.44.17.44.16.44.15.45.14.46.14.45.13.46.12.46.11.47.11.47.09.47.09.48.08.47.07.49.06.48.05.49.04.49.03.49.03.49.01.5v.5l-.02 1.07-.06 1.06-.11 1.05-.15 1.04-.19 1.02-.22 1.01-.27.99-.3.98-.35.96-.37.94-.42.93-.45.9-.48.89-.51.86-.55.84-.57.82-.61.8-.64.77-.66.75-.7.72-.72.69-.74.66-.78.64-.79.61-.82.58-.84.54-.87.52-.88.48-.91.45-.92.41-.95.38-.96.34-.97.3-1 .27-1.01.23-1.02.19-1.03.14-1.05.11-1.06.07-1.07.02-1.07-.02-1.06-.07-1.05-.11-1.04-.14-1.02-.19-1.01-.23-.99-.27-.98-.3-.96-.34-.94-.38-.93-.41-.9-.45-.89-.48-.86-.52-.85-.54-.81-.58-.8-.61-.77-.64-.75-.66-.72-.69-.69-.72-.67-.75-.64-.77-.6-.8-.58-.82-.55-.84-.51-.86-.48-.89-.45-.9-.41-.93-.38-.94-.34-.96-.31-.98-.26-.99-.23-1.01-.19-1.02-.15-1.04-.11-1.05-.06-1.06-.02-1.07v-.5l.02-.5.02-.49.03-.49.05-.49.05-.49.06-.48.07-.49.07-.47.09-.48.1-.47.1-.47.11-.47.12-.46.13-.46.14-.45.14-.46.16-.45.16-.44.17-.44.17-.44.19-.43.19-.43.2-.43.21-.42.21-.41.22-.42.23-.4.24-.41.24-.4.25-.39.26-.39.26-.38.27-.38.28-.38.28-.37.29-.36.29-.36.3-.35.31-.35h-6.68l-.18-.01h-.17l-.18-.01-.17-.02-.18-.02-.17-.02-.17-.03-.17-.03-.17-.03-.17-.04-.17-.05-.16-.04-.17-.05-.16-.06-.16-.06-.16-.06-.16-.07-.16-.07-.15-.07-.15-.08-.16-.08-.14-.08-.15-.09-.15-.09-.14-.1-.14-.1-.14-.1-.14-.1-.13-.11-.13-.11-.13-.12-.13-.12-.12-.12-.12-.12-.12-.13-.11-.13-.12-.14-.11-.13-.1-.14-.11-.15-.1-.14-.09-.15-.09-.15-.09-.15-.09-.15-.08-.16-.07-.15-.08-.16-.06-.16-.07-.16-.06-.16-.06-.16-.05-.17-.05-.16-.04-.17-.04-.17-.04-.16-.03-.17-.03-.17-.03-.17-.02-.17-.02-.17-.01-.17-.01-.17v-.52l.01-.17.01-.17.02-.18.02-.17.02-.17.03-.17.03-.17.04-.17.04-.17.05-.17.04-.17.06-.17.06-.16 13.01-36.15.06-.16.06-.16.07-.15.07-.15.07-.15.07-.15.08-.14.09-.15.08-.14.09-.13.09-.14.09-.13.1-.13.1-.13.1-.12.1-.12.11-.12.11-.12.11-.12.11-.11.12-.11.11-.1.13-.1.12-.11.12-.09.13-.1.13-.09.13-.09.13-.09.13-.08.14-.08.14-.08.14-.07.14-.07.14-.07.14-.07.15-.06.14-.06.15-.06.15-.05L42.28 31.2 5.5 16.75l-.33-.14-.32-.15-.31-.16-.31-.17-.29-.18-.29-.2-.27-.2-.27-.21-.25-.23-.25-.23-.24-.24-.22-.25-.22-.26-.2-.26-.2-.27-.18-.28-.18-.29-.16-.29-.15-.3-.14-.3-.12-.31-.12-.31-.1-.32-.09-.32-.08-.32-.07-.33-.05-.33-.04-.33-.03-.34L0 8.89v-.33l.01-.34.03-.34.03-.35.06-.34.06-.34.08-.34.1-.34.11-.33.12-.34.14-.33.15-.32.16-.31.17-.31.18-.29.2-.29.2-.27.22-.27.22-.25.23-.25.24-.24.25-.22.26-.22.26-.2.27-.2.28-.18.29-.17.29-.17.3-.15.3-.14.31-.12.31-.12.32-.1.32-.09.32-.08.33-.07.33-.05.33-.04.34-.03.34-.02h.34l.34.01.34.03zm90.54 217.17l-1.25.37-1.19.5-1.11.62-1.03.75-.95.84-.85.95-.74 1.03-.62 1.12-.51 1.18-.37 1.25-.22 1.3-.08 1.35.08 1.35.22 1.3.37 1.25.51 1.18.62 1.12.74 1.03.85.95.95.84 1.03.74 1.11.63 1.19.5 1.25.37 1.3.23 1.35.08 1.34-.08 1.31-.23 1.24-.37 1.19-.5 1.11-.63 1.04-.74.94-.84.85-.95.74-1.03.63-1.12.5-1.18.37-1.25.23-1.3.07-1.35-.07-1.35-.23-1.3-.37-1.25-.5-1.18-.63-1.12-.74-1.03-.85-.95-.94-.84-1.04-.75-1.11-.62-1.19-.5-1.24-.37-1.31-.23-1.34-.08-1.35.08-1.3.23zm95.43 0l-1.25.37-1.18.5-1.12.62-1.03.75-.95.84-.84.95-.74 1.03-.63 1.12-.5 1.18-.37 1.25-.23 1.3-.08 1.35.08 1.35.23 1.3.37 1.25.5 1.18.63 1.12.74 1.03.84.95.95.84 1.03.74 1.12.63 1.18.5 1.25.37 1.3.23 1.35.08 1.35-.08 1.3-.23 1.25-.37 1.18-.5 1.12-.63 1.03-.74.95-.84.85-.95.74-1.03.62-1.12.5-1.18.37-1.25.23-1.3.08-1.35-.08-1.35-.23-1.3-.37-1.25-.5-1.18-.62-1.12-.74-1.03-.85-.95-.95-.84-1.03-.75-1.12-.62-1.18-.5-1.25-.37-1.3-.23-1.35-.08-1.35.08-1.3.23zm3.86-59.6h19.94l6.02-18.79h-25.96v18.79zm-57.36 0h40v-18.79h-40v18.79zm-37.45 0h20.1v-18.79H97.98l6.52 18.79zm-12.54-36.15h32.64V99.05H84.18l7.78 22.41zm49.99 0h40V99.05h-40v22.41zm57.36 0h31.52l7.19-22.41h-38.71v22.41zm0-39.76h44.27l6.26-19.52h-50.53V81.7zm-57.36 0h40V62.18h-40V81.7zm-63.79 0h46.44V62.18H71.39l6.77 19.52z" id="a"/><path d="M299.28.04l.34.03.34.06.34.06.34.08.34.1.34.11.33.12 40.49 15.91.18.07.17.07.17.08.17.08.17.09.16.09.17.09.16.1.16.1.15.1.16.1.15.11.15.11.14.12.15.12.14.12.14.12.13.13.13.13.13.13.13.14.13.14.12.14.12.14.11.15.11.14.11.15.11.16.1.15.1.16.1.16.09.16.09.17.08.17.09.16.07.17.08.18.07.17.07.18.06.18 8.04 23.16.02-.01h.06l.03-.01h.05l.03-.01h.05l.03-.01h.09l.02-.01h.12l.02-.01h.14l.03-.01h.31l.03-.01h195.3l.2.01h.21l.21.02.2.01.21.03.2.02.2.03.2.04.2.04.2.05.2.05.19.05.2.06.19.06.19.07.19.07.19.08.18.08.19.09.18.09.18.09.17.1.18.1.17.11.17.11.17.11.16.12.17.12.16.13.15.13.16.13.15.14.14.14.15.14.14.15.14.15.13.16.13.16.13.16.13.17.12.17.11.17.11.17.11.18.1.18.1.18.1.18.09.18.08.19.08.18.08.19.07.19.06.19.07.2.05.19.06.2.05.19.04.2.04.2.03.2.03.2.03.2.02.2.01.2.01.2.01.21v.4l-.01.21-.01.2-.02.2-.02.2-.03.21-.03.2-.04.2-.04.2-.04.2-.06.2-.05.2-.06.2-36.15 112.79-.09.27-.1.26-.11.26-.11.25-.12.25-.13.24-.14.24-.14.24-.15.22-.16.23-.16.21-.17.22-.18.2-.18.2-.19.2-.19.18-.2.19-.21.17-.21.17-.21.16-.22.16-.23.14-.22.15-.24.13-.24.13-.24.12-.24.11-.25.1-.26.1-.25.09-.26.08-.27.08-.26.06-.27.06-.27.05-.28.04-.27.03-.28.02-.28.01-.28.01H387.95l-.09-.01h-.17l-.09-.01-.08-.01h-.09l-.09-.01-.08-.01-.09-.01-.09-.01-.08-.01-.09-.01-.08-.02-.09-.01-.08-.02-.09-.01-.08-.02-.08-.02-.09-.02-.08-.01-.08-.02-.09-.03-.08-.02-.08-.02-.08-.02-.09-.03-.08-.02-.08-.03-.08-.02-.08-.03-.08-.03-.08-.03-.08-.02-.08-.03-.08-.03-.08-.04-.08-.03-.07-.03-8.06 22.39h138.95l.29.02.29.03.29.04.29.05.28.07.27.07.27.09.27.09.26.11.26.11.25.12.25.14.24.14.23.15.23.16.22.17.21.18.21.18.2.2.19.2.19.2.17.22.17.22.16.23.15.23.15.24.13.24.13.26.11.25.1.27.1.26.08.27.08.28.06.28.05.28.04.29.03.29.02.3.01.3-.01.3-.02.29-.03.29-.04.29-.05.28-.06.29-.08.27-.08.27-.1.27-.1.26-.11.26-.13.25-.13.25-.15.24-.15.23-.16.23-.17.22-.17.21-.19.21-.19.2-.2.19-.21.19-.21.17-.22.17-.23.16-.23.15-.24.15-.25.13-.25.13-.26.11-.26.1-.27.1-.27.08-.27.08-.28.06-.29.05-.29.04-.29.03-.29.02-.3.01h-8.13l.31.35.3.35.29.36.29.36.29.37.27.38.27.38.26.38.26.39.25.39.24.4.24.41.23.4.22.42.21.41.21.42.2.43.19.43.19.43.17.44.17.44.16.45.16.44.14.46.14.45.13.46.12.46.11.47.11.47.09.47.09.48.07.48.07.48.06.48.05.49.05.49.03.49.02.49.02.5v.5l-.02 1.07-.06 1.06-.11 1.05-.15 1.04-.19 1.02-.23 1.01-.26.99-.31.98-.34.96-.38.94-.41.93-.45.9-.48.89-.51.86-.55.84-.58.82-.6.8-.64.77-.67.75-.69.72-.72.69-.75.67-.77.63-.79.61-.82.58-.85.54-.86.52-.88.48-.91.45-.92.41-.95.38-.96.34-.98.3-.99.27-1.01.23-1.02.19-1.04.15-1.04.1-1.06.07-1.08.02-1.07-.02-1.06-.07-1.05-.1-1.03-.15-1.03-.19-1-.23-1-.27-.97-.3-.97-.34-.94-.38-.92-.41-.91-.45-.88-.48-.87-.52-.84-.54-.82-.58-.8-.61-.77-.63-.74-.67-.72-.69-.7-.72-.66-.75-.64-.77-.61-.8-.57-.82-.55-.84-.51-.86-.49-.89-.44-.9-.42-.93-.37-.94-.35-.96-.3-.98-.27-.99-.23-1.01-.18-1.02-.15-1.04-.11-1.05-.06-1.06-.03-1.07.01-.5.01-.5.03-.49.03-.49.04-.49.05-.49.06-.48.07-.48.08-.48.09-.48.09-.47.11-.47.11-.47.12-.46.13-.46.13-.45.15-.46.15-.44.16-.45.17-.44.18-.44.19-.43.19-.43.2-.43.2-.42.22-.41.22-.42.23-.4.23-.41.25-.4.25-.39.25-.39.27-.38.27-.38.27-.38.29-.37.29-.36.29-.36.3-.35.31-.35h-56.75l.31.35.3.35.3.36.29.36.28.37.28.38.26.38.27.38.25.39.25.39.25.4.23.41.23.4.22.42.22.41.2.42.2.43.2.43.18.43.18.44.17.44.16.45.15.44.15.46.13.45.13.46.12.46.12.47.1.47.09.47.09.48.08.48.07.48.06.48.05.49.04.49.03.49.03.49.01.5.01.5-.03 1.07-.06 1.06-.11 1.05-.15 1.04-.18 1.02-.23 1.01-.27.99-.3.98-.35.96-.37.94-.42.93-.44.9-.49.89-.51.86-.55.84-.57.82-.61.8-.64.77-.66.75-.7.72-.72.69-.74.67-.78.63-.79.61-.82.58-.84.54-.87.52-.88.48-.91.45-.92.41-.94.38-.96.34-.98.3-1 .27-1 .23-1.03.19-1.03.15-1.05.1-1.06.07-1.07.02-1.07-.02-1.06-.07-1.05-.1-1.04-.15-1.02-.19-1.01-.23-.99-.27-.98-.3-.96-.34-.94-.38-.93-.41-.9-.45-.89-.48-.86-.52-.84-.54-.82-.58-.8-.61-.77-.63-.75-.67-.72-.69-.69-.72-.67-.75-.63-.77-.61-.8-.58-.82-.55-.84-.51-.86-.48-.89-.45-.9-.41-.93-.38-.94-.34-.96-.31-.98-.26-.99-.23-1.01-.19-1.02-.15-1.04-.1-1.05-.07-1.06-.02-1.07v-.5l.02-.5.02-.49.03-.49.05-.49.05-.49.06-.48.07-.48.07-.48.09-.48.1-.47.1-.47.11-.47.12-.46.13-.46.14-.45.14-.46.16-.44.16-.45.17-.44.17-.44.19-.43.19-.43.2-.43.21-.42.21-.41.22-.42.23-.4.24-.41.24-.4.25-.39.26-.39.26-.38.27-.38.28-.38.28-.37.29-.36.29-.36.3-.35.31-.35h-6.86l-.17-.01-.18-.01-.17-.02-.18-.02-.17-.02-.17-.03-.17-.03-.17-.03-.17-.04-.16-.05-.17-.04-.16-.05-.17-.06-.16-.06-.16-.06-.16-.07-.15-.07-.16-.07-.15-.08-.15-.08-.15-.08-.15-.09-.15-.09-.14-.1-.14-.1-.14-.1-.14-.1-.13-.11-.13-.11-.13-.12-.13-.12-.12-.12-.12-.12-.12-.13-.11-.13-.12-.14-.11-.13-.1-.14-.1-.15-.1-.14-.1-.15-.09-.15-.09-.15-.09-.15-.08-.16-.07-.15-.07-.16-.07-.16-.07-.16-.06-.16-.06-.16-.05-.17-.05-.16-.04-.17-.04-.16-.04-.17-.03-.17-.03-.17-.03-.17-.02-.17-.01-.17-.02-.17-.01-.17v-.52l.01-.17.01-.17.02-.17.02-.18.02-.17.03-.17.03-.17.04-.17.04-.17.05-.17.05-.17.05-.16.06-.17 13.01-36.15.06-.16.06-.16.07-.15.07-.15.07-.15.08-.15.07-.14.09-.15.08-.14.09-.13.09-.14.09-.13.1-.13.1-.13.1-.12.1-.12.11-.12.11-.12.11-.11.11-.12.12-.1.12-.11.12-.1.12-.1.12-.1.13-.1.13-.09.13-.09.13-.09.13-.08.14-.08.14-.08.14-.07.14-.07.14-.07.14-.07.15-.06.14-.06.15-.06.15-.05L332.08 31.2 295.3 16.75l-.33-.14-.32-.15-.31-.16-.3-.17-.3-.18-.28-.2-.28-.2-.27-.21-.25-.23-.25-.23-.24-.24-.22-.25-.22-.26-.2-.26-.2-.27-.18-.28-.17-.29-.17-.29-.15-.3-.14-.3-.12-.31-.12-.31-.1-.32-.09-.32-.08-.32-.07-.33-.05-.33-.04-.33-.03-.34-.02-.34v-.33l.01-.34.03-.34.04-.35.05-.34.06-.34.08-.34.1-.34.11-.33.12-.34.14-.33.15-.32.16-.31.17-.31.19-.29.19-.29.2-.27.22-.27.22-.25.23-.25.24-.24.25-.22.26-.22.26-.2.28-.2.27-.18.29-.17.29-.17.3-.15.3-.14.31-.12.31-.12.32-.1.32-.09.32-.08.33-.07.33-.05.34-.04.33-.03.34-.02h.34l.34.01.34.03zm90.54 217.17l-1.25.37-1.19.5-1.11.63-1.03.74-.95.84-.85.95-.74 1.03-.62 1.12-.5 1.18-.37 1.25-.23 1.3-.08 1.35.08 1.35.23 1.3.37 1.25.5 1.18.62 1.12.74 1.03.85.95.95.84 1.03.74 1.11.63 1.19.5 1.25.37 1.3.23 1.35.08 1.34-.08 1.31-.23 1.25-.37 1.18-.5 1.12-.63 1.03-.74.94-.84.85-.95.74-1.03.63-1.12.5-1.18.37-1.25.23-1.3.08-1.35-.08-1.35-.23-1.3-.37-1.25-.5-1.18-.63-1.12-.74-1.03-.85-.95-.94-.84-1.03-.74-1.12-.63-1.18-.5-1.25-.37-1.31-.23-1.34-.08-1.35.08-1.3.23zm95.43 0l-1.24.37-1.19.5-1.11.63-1.04.74-.94.84-.85.95-.74 1.03-.63 1.12-.5 1.18-.37 1.25-.23 1.3-.08 1.35.08 1.35.23 1.3.37 1.25.5 1.18.63 1.12.74 1.03.85.95.94.84 1.04.74 1.11.63 1.19.5 1.24.37 1.31.23 1.34.08 1.35-.08 1.3-.23 1.25-.37 1.19-.5 1.11-.63 1.03-.74.95-.84.85-.95.74-1.03.62-1.12.51-1.18.37-1.25.22-1.3.08-1.35-.08-1.35-.22-1.3-.37-1.25-.51-1.18-.62-1.12-.74-1.03-.85-.95-.95-.84-1.03-.74-1.11-.63-1.19-.5-1.25-.37-1.3-.23-1.35-.08-1.34.08-1.31.23zm3.86-59.59h19.94l6.02-18.8h-25.96v18.8zm-57.36-.01h40.01v-18.79h-40.01v18.79zm-37.45 0h20.1v-18.79h-26.62l6.52 18.79zm-12.54-36.15h32.64V99.05h-40.42l7.78 22.41zm49.99 0h40.01V99.05h-40.01v22.41zm57.36 0h31.52l7.19-22.41h-38.71v22.41zm0-39.76h44.27l6.26-19.52h-50.53V81.7zm-57.36 0h40.01V62.18h-40.01V81.7zm-63.79 0h46.44V62.18h-53.21l6.77 19.52z" id="b"/></defs><use xlink:href="#a" fill="#1f2d2e"/><use xlink:href="#a" fill-opacity="0" stroke="#000" stroke-opacity="0"/><use xlink:href="#b" fill="#d2f9f9"/><use xlink:href="#b" fill-opacity="0" stroke="#000" stroke-opacity="0"/></svg>