<svg xmlns="http://www.w3.org/2000/svg" width="441.2" height="228.4"><rect width="100%" height="100%" fill="none"/><g class="currentLayer"><g fill="#1f2d2e"><path d="M75.567 70.9L57.9 55.437 7.39 98.736a10.34 10.34 0 0 0 7.048 2.764h122.257a10.26 10.26 0 0 0 7.018-2.764l-50.48-43.3L75.567 70.9z"/><path d="M143.743 2.264A10.271 10.271 0 0 0 136.695-.5H14.438A10.23 10.23 0 0 0 7.41 2.285L75.567 60.7l68.176-58.436zM4.167 8.456v84.741l49.296-41.891zm93.503 42.85l49.297 41.891V8.425z"/></g><g fill="#48696b" class="selected"><path d="M365.567 72.567L347.9 57.103l-50.51 43.3a10.34 10.34 0 0 0 7.048 2.764h122.257c2.724 0 5.192-1.061 7.018-2.765l-50.48-43.299-17.666 15.464z"/><path d="M433.743 3.93a10.271 10.271 0 0 0-7.048-2.763H304.438a10.23 10.23 0 0 0-7.028 2.784l68.157 58.416L433.743 3.93zm-139.576 6.192v84.742l49.296-41.891zm93.503 42.85l49.297 41.892V10.092z"/></g></g></svg>