<svg xmlns="http://www.w3.org/2000/svg" width="48.056" height="27.173"><rect width="100%" height="100%" fill="none"/><g class="currentLayer"><g fill="#1f2d2e"><path d="M7 9.082L5.268 7.566.316 11.81c.18.167.423.27.691.27h11.986c.267 0 .509-.103.688-.27L8.732 7.566 7 9.082z"/><path d="M13.684 2.353a1.007 1.007 0 0 0-.691-.271H1.007c-.267 0-.509.104-.689.273L7 8.082l6.684-5.73zM0 2.96v8.308L4.833 7.16zm9.167 4.2L14 11.269V2.957z"/></g><g fill="#48696b"><path d="M23.946 9.246L22.214 7.73l-4.952 4.245c.18.167.423.271.691.271H29.94c.267 0 .51-.104.688-.27l-4.95-4.246-1.732 1.516z"/><path d="M30.63 2.517a1.007 1.007 0 0 0-.69-.27H17.952c-.267 0-.509.103-.689.272l6.682 5.727 6.684-5.729zm-13.684.607v8.308l4.833-4.107zm9.167 4.201l4.833 4.107v-8.31z"/></g></g></svg>