<svg xmlns="http://www.w3.org/2000/svg" xmlns:xlink="http://www.w3.org/1999/xlink" viewBox="0 0 639.987 413.216" width="639.99" height="413.22"><defs><path d="M166.31.51l6.19.63 6.12.88 6.04 1.11 5.96 1.35 5.86 1.57 5.77 1.8 5.68 2.02 5.57 2.23 5.46 2.44 5.34 2.64 5.23 2.85 5.1 3.03 4.98 3.23 4.84 3.41 4.7 3.59 4.55 3.76 4.41 3.93 4.25 4.09 4.1 4.26 3.93 4.41 3.76 4.55 3.59 4.7 3.41 4.84 3.22 4.98 3.04 5.1 2.84 5.23 2.65 5.34 2.44 5.46 2.23 5.57 2.02 5.67 1.8 5.78 1.57 5.86 1.35 5.96 1.11 6.04.87 6.12.64 6.19.38 6.26.13 6.33-.13 6.32-.38 6.27-.64 6.19-.87 6.12-1.11 6.04-1.35 5.95-1.58 5.87-1.79 5.77-2.02 5.67-2.23 5.57-2.44 5.46-2.65 5.35-2.84 5.22-3.04 5.11-3.22 4.97-3.41 4.84-3.59 4.7-3.76 4.56-3.94 4.41-4.09 4.25-4.25 4.09-4.41 3.94-4.56 3.76-4.7 3.59-4.84 3.41-4.97 3.22-5.11 3.04-5.22 2.84-5.35 2.65-5.46 2.44-5.57 2.23-5.67 2.02-5.77 1.79-5.87 1.58-5.95 1.35-6.04 1.11-6.12.87-6.19.64-6.27.38-6.32.13-6.33-.13-6.26-.38-6.19-.64-6.12-.87-6.04-1.11-5.96-1.35-5.86-1.58-5.78-1.79-5.67-2.02-5.57-2.23-5.46-2.44-5.34-2.65-5.23-2.84-5.1-3.04-4.98-3.22-4.84-3.41-4.7-3.59-4.55-3.76-4.41-3.94-4.26-4.09-4.09-4.25-3.93-4.41-3.76-4.56-3.59-4.7-3.41-4.84-3.23-4.97-3.03-5.11-2.85-5.22-2.64-5.35-2.44-5.46-2.23-5.57-2.02-5.67-1.8-5.77-1.57-5.87-1.35-5.95-1.11-6.04-.88-6.12-.63-6.19-.38-6.27-.13-6.32.13-6.33.38-6.26.63-6.19.88-6.12 1.11-6.04 1.35-5.96 1.57-5.86 1.8-5.78 2.02-5.67 2.23-5.57 2.44-5.46 2.64-5.34 2.85-5.23 3.03-5.1 3.23-4.98 3.41-4.84 3.59-4.7 3.76-4.55 3.93-4.41 4.09-4.26 4.26-4.09 4.41-3.93 4.55-3.76 4.7-3.59 4.84-3.41 4.98-3.23 5.1-3.03 5.23-2.85 5.34-2.64 5.46-2.44 5.57-2.23 5.67-2.02 5.78-1.8 5.86-1.57 5.96-1.35 6.04-1.11 6.12-.88 6.19-.63 6.26-.38 6.33-.13 6.32.13 6.27.38zm-3.43 69.51l-2.07.2-1.98.28-1.91.36-1.82.42-1.74.5-1.67.56-1.59.62-1.52.68-1.44.74-1.37.79-1.31.84-1.23.89-1.17.93-1.11.98-1.04 1.02-.98 1.05-.92 1.08-.86 1.12-.8 1.14-.75 1.16-.69 1.19-.64 1.21-.59 1.22-.54 1.24-.49 1.24-.45 1.25-.4 1.26-.36 1.26-.32 1.25-.28 1.25-.23 1.25-.21 1.23-.16 1.22-.14 1.2-.1 1.19-.07 1.16-.04 1.14-.01 1.11v20.38h-17.62v31.5h17.62v89.14h37.06v-89.14h25.01l3.23-31.5h-28.23v-18.51l.01-.51.02-.5.05-.47.05-.45.07-.44.09-.42.1-.4.12-.38.12-.36.14-.35.15-.33.16-.31.18-.3.18-.29.19-.27.2-.25.21-.24.22-.22.22-.21.23-.2.24-.19.24-.17.25-.16.25-.15.26-.13.25-.13.27-.11.26-.11.26-.09.27-.08.27-.07.26-.07.27-.05.26-.05.27-.04.26-.03.26-.02.25-.02.25-.01h20.18V69.96l-27.46-.11-2.24.04-2.16.13z" id="a"/><path d="M486.31.51l6.19.63 6.12.88 6.04 1.11 5.96 1.35 5.86 1.57 5.77 1.8 5.68 2.02 5.57 2.23 5.46 2.44 5.34 2.64 5.23 2.85 5.1 3.03 4.98 3.23 4.84 3.41 4.7 3.59 4.55 3.76 4.41 3.93 4.25 4.09 4.1 4.26 3.93 4.41 3.76 4.55 3.59 4.7 3.41 4.84 3.22 4.98 3.04 5.1 2.84 5.23 2.65 5.34 2.44 5.46 2.23 5.57 2.02 5.67 1.8 5.78 1.57 5.86 1.35 5.96 1.11 6.04.87 6.12.64 6.19.38 6.26.13 6.33-.13 6.32-.38 6.27-.64 6.19-.87 6.12-1.11 6.04-1.35 5.95-1.58 5.87-1.79 5.77-2.02 5.67-2.23 5.57-2.44 5.46-2.65 5.35-2.84 5.22-3.04 5.11-3.22 4.97-3.41 4.84-3.59 4.7-3.76 4.56-3.94 4.41-4.09 4.25-4.25 4.09-4.41 3.94-4.56 3.76-4.7 3.59-4.84 3.41-4.97 3.22-5.11 3.04-5.22 2.84-5.35 2.65-5.46 2.44-5.57 2.23-5.67 2.02-5.77 1.79-5.87 1.58-5.95 1.35-6.04 1.11-6.12.87-6.19.64-6.27.38-6.32.13-6.33-.13-6.26-.38-6.19-.64-6.12-.87-6.04-1.11-5.96-1.35-5.86-1.58-5.78-1.79-5.67-2.02-5.57-2.23-5.46-2.44-5.34-2.65-5.23-2.84-5.1-3.04-4.98-3.22-4.84-3.41-4.7-3.59-4.55-3.76-4.41-3.94-4.26-4.09-4.09-4.25-3.93-4.41-3.76-4.56-3.59-4.7-3.41-4.84-3.23-4.97-3.03-5.11-2.85-5.22-2.64-5.35-2.44-5.46-2.23-5.57-2.02-5.67-1.8-5.77-1.57-5.87-1.35-5.95-1.11-6.04-.88-6.12-.63-6.19-.38-6.27-.13-6.32.13-6.33.38-6.26.63-6.19.88-6.12 1.11-6.04 1.35-5.96 1.57-5.86 1.8-5.78 2.02-5.67 2.23-5.57 2.44-5.46 2.64-5.34 2.85-5.23 3.03-5.1 3.23-4.98 3.41-4.84 3.59-4.7 3.76-4.55 3.93-4.41 4.09-4.26 4.26-4.09 4.41-3.93 4.55-3.76 4.7-3.59 4.84-3.41 4.98-3.23 5.1-3.03 5.23-2.85 5.34-2.64 5.46-2.44 5.57-2.23 5.67-2.02 5.78-1.8 5.86-1.57 5.96-1.35 6.04-1.11 6.12-.88 6.19-.63 6.26-.38 6.33-.13 6.32.13 6.27.38zm-3.43 69.51l-2.07.2-1.98.28-1.91.36-1.82.42-1.74.5-1.67.56-1.59.62-1.52.68-1.44.74-1.37.79-1.31.84-1.23.89-1.17.93-1.11.98-1.04 1.02-.98 1.05-.92 1.08-.86 1.12-.8 1.14-.75 1.16-.69 1.19-.64 1.21-.59 1.22-.54 1.24-.49 1.24-.45 1.25-.4 1.26-.36 1.26-.32 1.25-.28 1.25-.23 1.25-.21 1.23-.16 1.22-.14 1.2-.1 1.19-.07 1.16-.04 1.14-.01 1.11v20.38h-17.62v31.5h17.62v89.14h37.06v-89.14h25.01l3.23-31.5h-28.23v-18.51l.01-.51.02-.5.05-.47.05-.45.07-.44.09-.42.1-.4.12-.38.12-.36.14-.35.15-.33.16-.31.18-.3.18-.29.19-.27.2-.25.21-.24.22-.22.22-.21.23-.2.24-.19.24-.17.25-.16.25-.15.26-.13.25-.13.27-.11.26-.11.26-.09.27-.08.27-.07.26-.07.27-.05.26-.05.27-.04.26-.03.26-.02.25-.02.25-.01h20.18V69.96l-27.46-.11-2.24.04-2.16.13z" id="b"/></defs><use xlink:href="#a" fill="#1f2d2e"/><use xlink:href="#a" fill-opacity="0" stroke="#000" stroke-opacity="0"/><use xlink:href="#b" fill="#48696b"/><use xlink:href="#b" fill-opacity="0" stroke="#000" stroke-opacity="0"/></svg>