<svg xmlns="http://www.w3.org/2000/svg" width="494.714" height="139"><rect width="100%" height="100%" fill="none"/><g class="currentLayer"><path d="M68.755 0C30.843 0 0 30.843 0 68.755c0 37.908 30.843 68.754 68.755 68.754 37.908 0 68.754-30.846 68.754-68.754C137.51 30.843 106.67 0 68.755 0zm17.098 71.175H74.667v39.87H58.092v-39.87h-7.879v-14.09h7.88V47.97c0-6.528 3.101-16.728 16.727-16.728l12.282.047v13.679h-8.915c-1.45 0-3.514.725-3.514 3.838v8.28h12.629l-1.449 14.09z" fill="#1f2d2e"/><path d="M424.469 0c-37.911 0-68.755 30.843-68.755 68.755 0 37.908 30.844 68.754 68.755 68.754 37.908 0 68.754-30.846 68.754-68.754C493.223 30.843 462.383 0 424.47 0zm17.099 71.175h-11.186v39.87h-16.576v-39.87h-7.879v-14.09h7.88V47.97c0-6.528 3.101-16.728 16.727-16.728l12.283.047v13.679h-8.915c-1.452 0-3.515.725-3.515 3.838v8.28h12.629l-1.448 14.09z" fill="#48696b" class="selected"/></g></svg>