<svg xmlns="http://www.w3.org/2000/svg" xmlns:xlink="http://www.w3.org/1999/xlink" viewBox="0 0 639.987 413.216" width="639.99" height="413.22"><defs><path d="M190.04.23l2.83.29 2.8.4 2.76.51 2.72.62 2.68.71 2.64.83 2.59.92 2.55 1.02 2.49 1.11 2.44 1.21 2.39 1.3 2.33 1.39 2.28 1.47 2.21 1.56 2.15 1.64 2.08 1.72 2.01 1.8 1.95 1.87 1.87 1.94 1.79 2.01 1.72 2.09 1.64 2.15 1.56 2.21 1.48 2.27 1.38 2.33 1.3 2.39 1.21 2.44 1.12 2.5 1.01 2.54.93 2.59.82 2.64.72 2.68.61 2.72.51 2.76.4 2.8.29 2.83.17 2.86.06 2.89v114.05l-.06 2.89-.17 2.86-.29 2.83-.4 2.8-.51 2.76-.61 2.72-.72 2.68-.82 2.64-.93 2.59-1.02 2.55-1.11 2.49-1.21 2.44-1.3 2.39-1.39 2.33-1.47 2.28-1.56 2.21-1.64 2.15-1.72 2.08-1.79 2.01-1.87 1.95-1.95 1.87-2.01 1.79-2.08 1.72-2.15 1.64-2.21 1.56-2.28 1.47-2.33 1.39-2.39 1.3-2.44 1.21-2.49 1.11-2.55 1.02-2.59.93-2.64.82-2.68.72-2.72.61-2.76.51-2.8.4-2.83.29-2.86.17-2.89.06H70.24l-2.89-.06-2.86-.17-2.83-.29-2.8-.4-2.76-.51-2.72-.61-2.68-.72-2.64-.82-2.59-.93-2.54-1.02-2.5-1.11-2.44-1.21-2.39-1.3-2.33-1.39-2.27-1.47-2.22-1.56-2.14-1.64-2.09-1.72-2.01-1.79-1.94-1.87-1.87-1.95-1.8-2.01-1.72-2.08-1.64-2.15-1.56-2.21-1.47-2.28-1.39-2.33-1.3-2.39-1.21-2.44-1.11-2.49-1.02-2.55-.92-2.59-.83-2.64-.72-2.68-.61-2.72-.51-2.76-.4-2.8-.29-2.83-.17-2.86-.06-2.89V70.24l.06-2.89.17-2.86.29-2.83.4-2.8.51-2.76.61-2.72.72-2.68.83-2.64.92-2.59 1.02-2.54 1.11-2.5 1.21-2.44 1.3-2.39 1.39-2.33L12.01 31l1.56-2.21 1.64-2.15 1.72-2.09 1.8-2.01 1.87-1.94 1.94-1.87 2.01-1.8 2.09-1.72 2.14-1.64L31 12.01l2.27-1.47 2.33-1.39 2.39-1.3 2.44-1.21 2.5-1.11 2.54-1.02 2.59-.92 2.64-.83 2.68-.71 2.72-.62 2.76-.51 2.8-.4 2.83-.29 2.86-.17L70.24 0h114.05l2.89.06 2.86.17zM68.28 22.62l-1.94.12-1.92.2-1.9.27-1.87.34-1.85.42-1.82.49-1.79.56-1.76.62-1.72.69-1.69.76-1.66.82-1.62.88-1.58.94-1.55 1-1.5 1.06-1.45 1.11-1.42 1.17-1.36 1.22-1.32 1.27-1.27 1.32-1.22 1.36-1.17 1.42-1.11 1.45-1.06 1.5-1 1.55-.94 1.58-.88 1.62-.82 1.66-.76 1.69-.69 1.73-.62 1.75-.56 1.79-.49 1.82-.42 1.85-.34 1.87-.27 1.9-.2 1.92-.12 1.94-.04 1.96v114.05l.04 1.96.12 1.94.2 1.92.27 1.9.34 1.87.42 1.85.49 1.82.56 1.79.62 1.76.69 1.72.76 1.7.82 1.65.88 1.63.94 1.58 1 1.54 1.06 1.5 1.11 1.46 1.17 1.41 1.22 1.37 1.27 1.32 1.32 1.27 1.36 1.21 1.42 1.17 1.45 1.11 1.5 1.06 1.55 1 1.58.94 1.62.88 1.66.82 1.69.76 1.72.69 1.76.63 1.79.55 1.82.49 1.85.42 1.87.35 1.9.27 1.92.19 1.94.12 1.96.04h114.05l1.31-.03 1.31-.09 1.3-.15 1.29-.21 1.28-.27 1.28-.32 1.28-.39 1.27-.45 1.26-.5 1.25-.57 1.25-.62 1.25-.69 1.24-.74 1.23-.81 1.22-.86 1.22-.93 1.21-.98 1.21-1.04 1.2-1.1 1.2-1.17 1.18-1.22 1.19-1.28 1.17-1.34 1.17-1.4 1.17-1.46 1.15-1.52 1.16-1.57 1.14-1.64 1.14-1.7 1.13-1.76 1.13-1.82 1.12-1.87 1.12-1.94 1.11-1.99 1.1-2.06 1.09-2.11 1.1-2.18 1.08-2.23 1.08-2.3 1.07-2.35V70.24l-.04-1.96-.12-1.94-.19-1.92-.28-1.9-.34-1.87-.42-1.85-.49-1.82-.55-1.79-.63-1.75-.69-1.73-.76-1.69-.82-1.66-.88-1.62-.94-1.58-1-1.55-1.06-1.5-1.11-1.45-1.17-1.42-1.22-1.36-1.27-1.32-1.31-1.27-1.37-1.22-1.41-1.17-1.46-1.11-1.5-1.06-1.54-1-1.59-.94-1.62-.88-1.65-.82-1.7-.76-1.72-.69-1.76-.62-1.79-.56-1.82-.49-1.85-.42-1.87-.34-1.9-.27-1.92-.2-1.94-.12-1.96-.04H70.24l-1.96.04z" id="a"/><path d="M133.46 61.9l2.61.27 2.57.37 2.54.48 2.51.57 2.47.67 2.43.77 2.39.86 2.34.96 2.3 1.04 2.25 1.12 2.2 1.22 2.14 1.29 2.1 1.38 2.03 1.45 1.98 1.53 1.92 1.61 1.85 1.68 1.79 1.74 1.73 1.82 1.65 1.88 1.59 1.94 1.51 2.01 1.43 2.06 1.36 2.13 1.28 2.17 1.19 2.23 1.11 2.28 1.03 2.33.94 2.38.85 2.42.76 2.46.66 2.51.57 2.54.46 2.57.37 2.62.27 2.64.16 2.67.05 2.7-.05 2.7-.16 2.67-.27 2.64-.37 2.61-.46 2.58-.57 2.54-.66 2.5-.76 2.47-.85 2.42-.94 2.37-1.03 2.33-1.11 2.28-1.19 2.23-1.28 2.18-1.36 2.12-1.43 2.07-1.51 2-1.59 1.95-1.65 1.88-1.73 1.81-1.79 1.75-1.85 1.68-1.92 1.6-1.98 1.53-2.03 1.46-2.1 1.37-2.14 1.3-2.2 1.21-2.25 1.13-2.3 1.04-2.34.95-2.39.86-2.43.77-2.47.67-2.51.58-2.54.47-2.57.38-2.61.27-2.64.16-2.66.05-2.66-.05-2.64-.16-2.6-.27-2.58-.38-2.54-.47-2.51-.58-2.46-.67-2.43-.77-2.39-.86-2.34-.95-2.3-1.04-2.25-1.13-2.2-1.21-2.15-1.3-2.09-1.37-2.04-1.46-1.98-1.53-1.92-1.6-1.85-1.68-1.79-1.75-1.72-1.81-1.66-1.88-1.58-1.95-1.51-2-1.44-2.07-1.35-2.12-1.28-2.18-1.2-2.23-1.11-2.28-1.03-2.33-.94-2.37-.85-2.42-.75-2.47-.67-2.5-.56-2.54-.47-2.58-.37-2.61-.26-2.64-.17-2.67-.05-2.7.05-2.7.17-2.67.26-2.64.37-2.62.47-2.57.56-2.54.67-2.51.75-2.46.85-2.42.94-2.38 1.03-2.33 1.11-2.28 1.2-2.23 1.28-2.17 1.35-2.13 1.44-2.06 1.51-2.01 1.58-1.94 1.66-1.88 1.72-1.82 1.79-1.74 1.85-1.68L88 75.88l1.98-1.53 2.04-1.45 2.09-1.38 2.15-1.29 2.2-1.22 2.25-1.12 2.3-1.04 2.34-.96 2.39-.86 2.43-.77 2.46-.67 2.51-.57 2.54-.48 2.58-.37 2.6-.27 2.64-.16 2.66-.06 2.66.06 2.64.16zm-8.77 22.51l-1.71.17-1.69.25-1.67.31-1.64.38-1.62.44-1.59.5-1.57.57-1.53.62-1.51.68-1.47.74-1.45.8-1.4.85-1.38.9-1.33.95-1.3 1.01-1.26 1.05-1.21 1.1-1.18 1.14-1.13 1.19-1.08 1.24-1.04 1.27-.99 1.32-.94 1.35-.89 1.39-.84 1.43-.78 1.46-.73 1.5-.68 1.53-.61 1.55-.56 1.59-.49 1.61-.44 1.65-.37 1.66-.31 1.69-.24 1.71-.17 1.74-.11 1.75-.03 1.77.03 1.77.11 1.75.17 1.73.24 1.71.31 1.69.37 1.67.44 1.64.49 1.62.56 1.58.61 1.56.68 1.53.73 1.49.78 1.46.84 1.43.89 1.39.94 1.36.99 1.31 1.04 1.28 1.08 1.23 1.13 1.19 1.18 1.15 1.21 1.09 1.26 1.06 1.3 1 1.33.95 1.38.91 1.4.85 1.45.79 1.47.74 1.51.68 1.53.63 1.57.56 1.59.51 1.62.44 1.64.37 1.67.31 1.69.25 1.71.18 1.73.1 1.74.04 1.75-.04 1.73-.1 1.7-.18 1.69-.25 1.67-.31 1.64-.37 1.62-.44 1.59-.51 1.57-.56 1.54-.63 1.5-.68 1.48-.74 1.44-.79 1.41-.85 1.37-.91 1.34-.95 1.29-1 1.26-1.06 1.22-1.09 1.17-1.15 1.13-1.19 1.09-1.23 1.03-1.28.99-1.31.94-1.36.89-1.39.84-1.43.79-1.46.73-1.49.67-1.53.62-1.56.55-1.58.5-1.62.43-1.64.37-1.67.31-1.69.24-1.71.18-1.73.1-1.75.04-1.77-.04-1.77-.1-1.75-.18-1.74-.24-1.71-.31-1.69-.37-1.66-.43-1.65-.5-1.61-.55-1.59-.62-1.55-.67-1.53-.73-1.5-.79-1.46-.84-1.43-.89-1.39-.94-1.35-.99-1.32-1.03-1.27-1.09-1.24-1.13-1.19-1.17-1.14-1.22-1.1-1.26-1.05-1.29-1.01-1.34-.95-1.37-.9-1.41-.85-1.44-.8-1.48-.74-1.5-.68-1.54-.62-1.57-.57-1.59-.5-1.62-.44-1.64-.38-1.67-.31-1.69-.25-1.7-.17-1.73-.11-1.75-.04-1.74.04-1.73.11z" id="b"/><path d="M553.31.23l2.83.29 2.8.4 2.76.51 2.72.62 2.68.71 2.64.83 2.59.92 2.55 1.02 2.49 1.11 2.45 1.21 2.38 1.3 2.34 1.39 2.27 1.47 2.21 1.56 2.15 1.64 2.08 1.72 2.01 1.8 1.95 1.87 1.87 1.94 1.8 2.01 1.71 2.09 1.64 2.15 1.56 2.21 1.48 2.27 1.38 2.33 1.3 2.39 1.21 2.44 1.12 2.5 1.02 2.54.92 2.59.82 2.64.72 2.68.61 2.72.51 2.76.4 2.8.29 2.83.18 2.86.05 2.89v114.05l-.05 2.89-.18 2.86-.29 2.83-.4 2.8-.51 2.76-.61 2.72-.72 2.68-.82 2.64-.92 2.59-1.02 2.55-1.12 2.49-1.21 2.44-1.3 2.39-1.38 2.33-1.48 2.28-1.56 2.21-1.64 2.15-1.72 2.08-1.79 2.01-1.87 1.95-1.95 1.87-2.01 1.79-2.08 1.72-2.15 1.64-2.21 1.56-2.28 1.47-2.33 1.39-2.39 1.3-2.44 1.21-2.49 1.11-2.55 1.02-2.59.93-2.64.82-2.68.72-2.72.61-2.76.51-2.8.4-2.83.29-2.86.17-2.89.06H433.51l-2.89-.06-2.86-.17-2.83-.29-2.8-.4-2.76-.51-2.72-.61-2.68-.72-2.64-.82-2.59-.93-2.54-1.02-2.5-1.11-2.44-1.21-2.39-1.3-2.33-1.39-2.27-1.47-2.21-1.56-2.15-1.64-2.08-1.72-2.02-1.79-1.94-1.87-1.87-1.95-1.8-2.01-1.72-2.08-1.64-2.15-1.56-2.21-1.47-2.28-1.39-2.33-1.3-2.39-1.21-2.44-1.11-2.49-1.02-2.55-.92-2.59-.82-2.64-.72-2.68-.62-2.72-.51-2.76-.4-2.8-.29-2.83-.17-2.86-.06-2.89V70.24l.06-2.89.17-2.86.29-2.83.4-2.8.51-2.76.62-2.72.72-2.68.82-2.64.92-2.59 1.02-2.54 1.11-2.5 1.21-2.44 1.3-2.39 1.39-2.33 1.47-2.27 1.56-2.21 1.64-2.15 1.72-2.09 1.8-2.01 1.87-1.94 1.94-1.87 2.02-1.8 2.08-1.72 2.15-1.64 2.21-1.56 2.27-1.47 2.33-1.39 2.39-1.3 2.44-1.21 2.5-1.11 2.54-1.02 2.59-.92 2.64-.83 2.68-.71 2.72-.62 2.76-.51 2.8-.4 2.83-.29 2.86-.17 2.89-.06h114.05l2.89.06 2.86.17zM431.55 22.62l-1.94.12-1.92.2-1.9.27-1.87.34-1.85.42-1.82.49-1.79.56-1.75.62-1.73.69-1.69.76-1.66.82-1.62.88-1.58.94-1.55 1-1.5 1.06-1.45 1.11-1.42 1.17-1.36 1.22-1.32 1.27-1.27 1.32-1.22 1.36-1.17 1.42-1.11 1.45-1.06 1.5-1 1.55-.94 1.58-.88 1.62-.82 1.66-.75 1.69-.7 1.73-.62 1.75-.56 1.79-.49 1.82-.42 1.85-.34 1.87-.27 1.9-.2 1.92-.12 1.94-.04 1.96v114.05l.04 1.96.12 1.94.2 1.92.27 1.9.34 1.87.42 1.85.49 1.82.56 1.79.62 1.76.7 1.72.75 1.7.82 1.65.88 1.63.94 1.58 1 1.54 1.06 1.5 1.11 1.46 1.17 1.41 1.22 1.37 1.27 1.32 1.32 1.27 1.36 1.21 1.42 1.17 1.45 1.11 1.5 1.06 1.55 1 1.58.94 1.62.88 1.66.82 1.69.76 1.73.69 1.75.63 1.79.55 1.82.49 1.85.42 1.87.35 1.9.27 1.92.19 1.94.12 1.96.04h114.05l1.31-.03 1.31-.09 1.3-.15 1.29-.21 1.29-.27 1.28-.32 1.27-.39 1.27-.45 1.26-.5 1.26-.57 1.25-.62 1.24-.69 1.24-.74 1.23-.81 1.22-.86 1.22-.93 1.21-.98 1.21-1.04 1.2-1.1 1.2-1.17 1.18-1.22 1.19-1.28 1.17-1.34 1.17-1.4 1.17-1.46 1.16-1.52 1.15-1.57 1.14-1.64 1.14-1.7 1.13-1.76 1.13-1.82 1.12-1.87 1.12-1.94 1.11-1.99 1.1-2.06 1.1-2.11 1.09-2.18 1.08-2.23 1.08-2.3 1.07-2.35V70.24l-.04-1.96-.12-1.94-.19-1.92-.27-1.9-.35-1.87-.42-1.85-.49-1.82-.55-1.79-.63-1.75-.69-1.73-.76-1.69-.82-1.66-.88-1.62-.94-1.58-1-1.55-1.06-1.5-1.11-1.45-1.17-1.42-1.21-1.36-1.27-1.32-1.32-1.27-1.37-1.22-1.41-1.17-1.46-1.11-1.5-1.06-1.54-1-1.58-.94-1.63-.88-1.65-.82-1.7-.76-1.72-.69-1.76-.62-1.79-.56-1.82-.49-1.85-.42-1.87-.34-1.9-.27-1.92-.2-1.94-.12-1.96-.04H433.51l-1.96.04z" id="c"/><path d="M495.91 61.9l2.64.27 2.61.37 2.58.48 2.54.57 2.5.67 2.47.77 2.42.86 2.37.96 2.33 1.04 2.28 1.12 2.23 1.22 2.18 1.29 2.12 1.38 2.07 1.45 2 1.53 1.95 1.61 1.88 1.68 1.81 1.74 1.75 1.82 1.68 1.88 1.6 1.94 1.53 2.01 1.46 2.06 1.37 2.13 1.3 2.17 1.21 2.23 1.13 2.28 1.04 2.33.95 2.38.87 2.42.76 2.46.67 2.51.58 2.54.47 2.57.38 2.62.27 2.64.16 2.67.05 2.7-.05 2.7-.16 2.67-.27 2.64-.38 2.61-.47 2.58-.58 2.54-.67 2.5-.76 2.47-.87 2.42-.95 2.37-1.04 2.33-1.13 2.28-1.21 2.23-1.3 2.18-1.37 2.12-1.46 2.07-1.53 2-1.6 1.95-1.68 1.88-1.75 1.81-1.81 1.75-1.88 1.68-1.95 1.6-2 1.53-2.07 1.46-2.12 1.37-2.18 1.3-2.23 1.21-2.28 1.13-2.33 1.04-2.37.95-2.42.86-2.47.77-2.5.67-2.54.58-2.58.47-2.61.38-2.64.27-2.67.16-2.7.05-2.7-.05-2.67-.16-2.65-.27-2.61-.38-2.57-.47-2.54-.58-2.51-.67-2.46-.77-2.42-.86-2.38-.95-2.33-1.04-2.28-1.13-2.23-1.21-2.18-1.3-2.12-1.37-2.06-1.46-2.01-1.53-1.94-1.6-1.88-1.68-1.82-1.75-1.74-1.81-1.68-1.88-1.61-1.95-1.53-2-1.45-2.07-1.38-2.12-1.29-2.18-1.22-2.23-1.13-2.28-1.04-2.33-.95-2.37-.86-2.42-.77-2.47-.67-2.5-.57-2.54-.48-2.58-.37-2.61-.27-2.64-.16-2.67-.06-2.7.06-2.7.16-2.67.27-2.64.37-2.62.48-2.57.57-2.54.67-2.51.77-2.46.86-2.42.95-2.38 1.04-2.33 1.13-2.28 1.22-2.23 1.29-2.17 1.38-2.13 1.45-2.06 1.53-2.01 1.61-1.94 1.68-1.88 1.74-1.82 1.82-1.74 1.88-1.68 1.94-1.61 2.01-1.53 2.06-1.45 2.12-1.38 2.18-1.29 2.23-1.22 2.28-1.12 2.33-1.04 2.38-.96 2.42-.86 2.46-.77 2.51-.67 2.54-.57 2.57-.48 2.61-.37 2.65-.27 2.67-.16 2.7-.06 2.7.06 2.67.16zm-8.89 22.51l-1.74.17-1.71.25-1.69.31-1.66.38-1.65.44-1.61.5-1.59.57-1.56.62-1.52.68-1.5.74-1.46.8-1.43.85-1.39.9-1.35.95-1.32 1.01-1.27 1.05-1.24 1.1-1.19 1.14-1.14 1.19-1.1 1.24-1.05 1.27-1.01 1.32-.95 1.35-.9 1.39-.85 1.43-.8 1.46-.74 1.5-.68 1.53-.63 1.55-.56 1.59-.5 1.61-.44 1.65-.38 1.66-.31 1.69-.25 1.71-.17 1.74-.11 1.75-.04 1.77.04 1.77.11 1.75.17 1.73.25 1.71.31 1.69.38 1.67.44 1.64.5 1.62.56 1.58.63 1.56.68 1.53.74 1.49.8 1.46.85 1.43.9 1.39.95 1.36 1.01 1.31 1.05 1.28 1.1 1.23 1.14 1.19 1.19 1.15 1.24 1.09 1.27 1.06 1.32 1 1.35.95 1.39.91 1.43.85 1.46.79 1.5.74 1.53.68 1.55.63 1.59.56 1.61.51 1.65.44 1.66.37 1.69.31 1.71.25 1.74.18 1.75.1 1.77.04 1.77-.04 1.75-.1 1.73-.18 1.71-.25 1.69-.31 1.67-.37 1.64-.44 1.61-.51 1.59-.56 1.56-.63 1.53-.68 1.49-.74 1.47-.79 1.42-.85 1.39-.91 1.36-.95 1.31-1 1.28-1.06 1.23-1.09 1.19-1.15 1.15-1.19 1.1-1.23 1.05-1.28 1-1.31.96-1.36.9-1.39.85-1.43.79-1.46.74-1.49.69-1.53.62-1.56.56-1.58.51-1.62.44-1.64.38-1.67.31-1.69.24-1.71.18-1.73.1-1.75.04-1.77-.04-1.77-.1-1.75-.18-1.74-.24-1.71-.31-1.69-.38-1.66-.44-1.65-.51-1.61-.56-1.59-.62-1.55-.69-1.53-.74-1.5-.79-1.46-.85-1.43-.9-1.39-.96-1.35-1-1.32-1.05-1.27-1.1-1.24-1.15-1.19-1.19-1.14-1.23-1.1-1.28-1.05-1.31-1.01-1.36-.95-1.39-.9-1.42-.85-1.47-.8-1.49-.74-1.53-.68-1.56-.62-1.58-.57-1.62-.5-1.64-.44-1.67-.38-1.69-.31-1.71-.25-1.73-.17-1.75-.11-1.77-.04-1.77.04-1.75.11z" id="d"/></defs><use xlink:href="#a" fill="#1f2d2e"/><use xlink:href="#a" fill-opacity="0" stroke="#000" stroke-opacity="0"/><use xlink:href="#b" fill="#1f2d2e"/><use xlink:href="#b" fill-opacity="0" stroke="#000" stroke-opacity="0"/><use xlink:href="#c" fill="#48696b"/><use xlink:href="#c" fill-opacity="0" stroke="#000" stroke-opacity="0"/><use xlink:href="#d" fill="#48696b"/><use xlink:href="#d" fill-opacity="0" stroke="#000" stroke-opacity="0"/></svg>