<svg xmlns="http://www.w3.org/2000/svg" width="774.909" height="239.273"><rect width="100%" height="100%" fill="none"/><g class="currentLayer"><path d="M239.134 188.221c.502 3.847-.67 7.192-3.512 10.035l-33.366 33.113c-1.505 1.673-3.47 3.095-5.895 4.265-2.425 1.171-4.807 1.924-7.148 2.258-.167 0-.67.043-1.507.126-.835.084-1.922.126-3.26.126-3.178 0-8.322-.543-15.43-1.63s-15.804-3.765-26.089-8.029c-10.287-4.264-21.952-10.662-34.997-19.191-13.044-8.528-26.926-20.236-41.644-35.122-11.707-11.54-21.407-22.578-29.1-33.114-7.694-10.537-13.882-20.279-18.565-29.226-4.683-8.948-8.195-17.06-10.536-24.334S4.155 73.95 3.318 68.682s-1.17-9.407-1.003-12.418c.167-3.01.25-4.682.25-5.017.335-2.341 1.088-4.725 2.258-7.15s2.593-4.39 4.265-5.895L42.453 4.837c2.342-2.342 5.018-3.513 8.028-3.513 2.174 0 4.098.628 5.77 1.882s3.094 2.801 4.265 4.64l26.843 50.927c1.505 2.676 1.923 5.603 1.254 8.78-.669 3.178-2.09 5.854-4.265 8.028L72.056 87.874c-.335.334-.627.878-.878 1.63s-.376 1.38-.376 1.882c.669 3.512 2.174 7.526 4.515 12.042 2.007 4.014 5.101 8.905 9.282 14.675s10.119 12.418 17.812 19.944c7.526 7.694 14.216 13.672 20.07 17.938 5.852 4.263 10.745 7.4 14.676 9.407 3.93 2.007 6.94 3.22 9.03 3.636l3.135.628c.335 0 .88-.126 1.631-.376.753-.252 1.297-.544 1.632-.879l14.299-14.55c3.012-2.676 6.522-4.014 10.536-4.014 2.844 0 5.101.502 6.774 1.506h.25l48.417 28.599c3.513 2.175 5.604 4.934 6.273 8.28z" fill="#1f2d2e"/><path d="M775.043 187.767c.502 3.847-.67 7.192-3.512 10.034l-33.365 33.114c-1.506 1.672-3.47 3.095-5.895 4.264-2.426 1.172-4.808 1.924-7.149 2.258-.167 0-.67.043-1.507.127-.835.083-1.922.126-3.26.126-3.178 0-8.322-.544-15.43-1.631s-15.804-3.764-26.089-8.028c-10.287-4.265-21.952-10.663-34.996-19.192-13.045-8.528-26.927-20.236-41.645-35.121-11.707-11.54-21.407-22.578-29.1-33.114-7.694-10.537-13.882-20.28-18.565-29.227-4.683-8.947-8.195-17.059-10.536-24.334s-3.93-13.547-4.767-18.815-1.17-9.408-1.003-12.418c.167-3.01.25-4.683.25-5.017.335-2.342 1.088-4.725 2.258-7.15s2.593-4.39 4.265-5.896l33.366-33.365C580.704 2.041 583.38.87 586.39.87c2.175 0 4.098.627 5.77 1.881s3.094 2.802 4.265 4.641l26.843 50.927c1.505 2.676 1.923 5.602 1.254 8.78-.669 3.178-2.09 5.854-4.264 8.028l-12.293 12.292c-.334.335-.627.878-.878 1.631s-.376 1.38-.376 1.881c.669 3.513 2.174 7.527 4.515 12.042 2.007 4.014 5.101 8.906 9.282 14.676s10.119 12.417 17.812 19.944c7.526 7.694 14.216 13.672 20.07 17.937 5.852 4.264 10.745 7.4 14.676 9.408 3.93 2.006 6.94 3.219 9.03 3.636l3.136.627c.334 0 .879-.125 1.63-.376.753-.251 1.297-.543 1.632-.878l14.299-14.55c3.012-2.676 6.522-4.014 10.537-4.014 2.844 0 5.1.501 6.773 1.505h.25l48.417 28.6c3.514 2.175 5.604 4.934 6.273 8.279z" fill="#48696b" class="selected"/></g></svg>