<svg xmlns="http://www.w3.org/2000/svg" xmlns:xlink="http://www.w3.org/1999/xlink" viewBox="0 0 639.987 413.216" width="639.99" height="413.22"><defs><path d="M193.34 163.31l-27.64 27.43c-1.25 1.39-2.88 2.57-4.89 3.54-2.01.97-3.98 1.59-5.92 1.87-.14 0-.55.03-1.25.1-.69.07-1.59.11-2.7.11-2.63 0-6.89-.45-12.78-1.35-5.89-.91-13.09-3.12-21.61-6.65-8.53-3.54-18.19-8.84-29-15.9-10.8-7.07-22.3-16.77-34.5-29.1-9.69-9.56-17.73-18.7-24.1-27.43-6.38-8.73-11.5-16.8-15.38-24.21-3.88-7.42-6.79-14.14-8.73-20.16C2.9 65.53 1.58 60.33.89 55.97.2 51.6-.08 48.17.06 45.68c.14-2.49.21-3.88.21-4.16.27-1.94.9-3.91 1.87-5.92.97-2.01 2.14-3.64 3.53-4.88C8.43 27.95 30.55 5.84 33.31 3.08 35.25 1.14 37.47.17 39.96.17c1.8 0 3.4.52 4.78 1.56 1.39 1.03 2.56 2.32 3.53 3.84 2.23 4.22 20.02 37.97 22.24 42.19 1.25 2.22 1.6 4.64 1.04 7.27-.55 2.64-1.73 4.85-3.53 6.65L57.83 71.87c-.27.27-.52.72-.72 1.35-.21.62-.31 1.14-.31 1.56.55 2.91 1.8 6.23 3.74 9.97 1.66 3.33 4.22 7.38 7.69 12.16 3.46 4.78 8.38 10.29 14.75 16.52 6.24 6.38 11.78 11.33 16.63 14.86 4.85 3.53 8.9 6.13 12.16 7.8 3.25 1.66 5.75 2.66 7.48 3.01.26.05 2.34.47 2.59.52.28 0 .73-.11 1.36-.31.62-.21 1.07-.45 1.35-.73 1.18-1.21 10.66-10.85 11.84-12.05 2.5-2.22 5.41-3.33 8.73-3.33 2.36 0 4.23.42 5.61 1.25h.21c24.07 14.21 37.44 22.11 40.11 23.69 2.91 1.8 4.64 4.09 5.2 6.86.41 3.19-.56 5.96-2.91 8.31z" id="a"/><path d="M405.53 163.31l-27.64 27.43c-1.25 1.39-2.88 2.57-4.89 3.54-2.01.97-3.98 1.59-5.92 1.87-.14 0-.55.03-1.25.1-.69.07-1.59.11-2.7.11-2.63 0-6.89-.45-12.78-1.35-5.89-.91-13.09-3.12-21.61-6.65-8.53-3.54-18.19-8.84-29-15.9-10.8-7.07-22.3-16.77-34.5-29.1-9.69-9.56-17.73-18.7-24.1-27.43-6.38-8.73-11.5-16.8-15.38-24.21-3.88-7.42-6.79-14.14-8.73-20.16-1.94-6.03-3.26-11.23-3.95-15.59-.69-4.37-.97-7.8-.83-10.29.14-2.49.21-3.88.21-4.16.27-1.94.9-3.91 1.87-5.92.97-2.01 2.14-3.64 3.53-4.88 2.76-2.77 24.88-24.88 27.64-27.64 1.94-1.94 4.16-2.91 6.65-2.91 1.8 0 3.4.52 4.78 1.56 1.39 1.03 2.56 2.32 3.53 3.84 2.23 4.22 20.02 37.97 22.24 42.19 1.25 2.22 1.59 4.64 1.04 7.27-.55 2.64-1.73 4.85-3.53 6.65l-10.19 10.19c-.27.27-.52.72-.72 1.35-.21.62-.32 1.14-.32 1.56.56 2.91 1.81 6.23 3.75 9.97 1.66 3.33 4.22 7.38 7.69 12.16 3.46 4.78 8.38 10.29 14.75 16.52 6.24 6.38 11.78 11.33 16.63 14.86 4.85 3.53 8.9 6.13 12.16 7.8 3.25 1.66 5.75 2.66 7.48 3.01.26.05 2.33.47 2.59.52.28 0 .73-.11 1.36-.31.62-.21 1.07-.45 1.35-.73 1.18-1.21 10.66-10.85 11.84-12.05 2.5-2.22 5.41-3.33 8.73-3.33 2.36 0 4.23.42 5.61 1.25h.21c24.07 14.21 37.44 22.11 40.11 23.69 2.91 1.8 4.64 4.09 5.2 6.86.41 3.19-.56 5.96-2.91 8.31z" id="b"/></defs><use xlink:href="#a" fill="#1f2d2e"/><use xlink:href="#a" fill-opacity="0" stroke="#000" stroke-opacity="0"/><use xlink:href="#b" fill="#48696b"/><use xlink:href="#b" fill-opacity="0" stroke="#000" stroke-opacity="0"/></svg>