<?xml version="1.0" encoding="iso-8859-1"?>
<!-- Generator: Adobe Illustrator 18.1.1, SVG Export Plug-In . SVG Version: 6.00 Build 0)  -->
<svg xmlns="http://www.w3.org/2000/svg" xmlns:xlink="http://www.w3.org/1999/xlink" version="1.1" id="Capa_1" x="0px" y="0px" viewBox="0 0 441.919 441.919" style="enable-background:new 0 0 441.919 441.919;" xml:space="preserve" width="512px" height="512px">
<g>
	<g>
		<path d="M23.152,184.976c-32.017,45.9-23.8,92.65-16.433,133.733c0.567,2.833,1.133,5.667,1.417,8.5    c6.8,39.1,16.15,92.367,61.483,100.3c17.567,3.117,56.95,8.217,93.783,8.217c28.9,0,49.867-3.117,63.467-9.633    c16.433-7.65,26.917-15.867,35.417-22.383c8.217-6.233,12.183-9.067,17-9.633c1.983-0.283,4.25-0.283,7.083-0.283    c11.05,0,24.65,1.417,33.433,2.55c-1.7,2.55-2.55,5.667-2.55,9.067c0,9.35,7.65,16.717,17,16.717l0,0l90.667-0.283    c9.35,0,17-7.367,17-16.717v-204c0-9.35-7.65-17-17-17h-87.833c-3.683,0-6.8,1.133-9.633,2.833    c-19.833-6.233-55.533-20.967-67.433-40.233c-19.55-31.733-56.95-128.633-57.233-129.483c-2.267-5.95-7.65-9.917-13.883-10.767    c-0.567,0-3.683-0.283-8.217-0.283c-51.567,0-69.983,33.717-69.983,65.167s6.233,60.633,12.183,80.75    c-5.95-0.567-12.467-0.85-19.267-0.85C66.786,150.976,38.736,162.876,23.152,184.976z M408.202,388.126l-61.2,0.283    c1.133-2.267,1.7-4.817,1.7-7.367V218.126h59.5V388.126z M51.202,204.526c11.333-16.15,34.85-19.55,52.983-19.55    c21.533,0,40.233,4.817,40.517,4.817c6.233,1.7,13.033-0.283,17.283-5.383c4.25-4.817,5.383-11.9,2.833-17.85    c-0.283-0.567-19.267-45.05-19.267-95.483c0-16.717,7.083-22.667,12.183-25.783c5.95-3.4,12.75-4.817,18.133-5.1    c10.767,26.917,38.533,96.05,55.817,124.1c18.133,29.75,61.2,47.033,83.3,54.117v143.083c-12.467-1.417-28.617-2.267-38.817-1.417    c-14.733,1.417-24.367,8.783-34.283,16.717c-7.367,5.667-15.867,12.183-28.9,18.417c-5.1,2.267-18.133,6.517-49.017,6.517    c-34.567,0-71.4-4.817-87.833-7.65c-18.417-3.117-26.067-28.05-33.717-72.533c-0.567-2.833-1.133-5.667-1.417-8.5    C33.636,274.793,27.119,238.81,51.202,204.526z" fill="#1f2d2e"/>
	</g>
</g>
<g>
</g>
<g>
</g>
<g>
</g>
<g>
</g>
<g>
</g>
<g>
</g>
<g>
</g>
<g>
</g>
<g>
</g>
<g>
</g>
<g>
</g>
<g>
</g>
<g>
</g>
<g>
</g>
<g>
</g>
</svg>
