<svg xmlns="http://www.w3.org/2000/svg" viewBox="0 0 479.969 479.969" width="512" height="512"><path d="M396.169 34.38c-.535 0-1.069.055-1.594.162a208.991 208.991 0 0 1-151.664-26.88l-10.552-6.48a8 8 0 0 0-8.368 0l-10.552 6.48A208.993 208.993 0 0 1 61.775 34.51a7.999 7.999 0 0 0-9.6 7.864v245.92a177.905 177.905 0 0 0 24.352 89.92 171.294 171.294 0 0 0 79.368 70.792l69.08 30.296c2.04.891 4.36.891 6.4 0l69.104-30.296a171.147 171.147 0 0 0 11.44-5.528 8.002 8.002 0 0 0 3.316-10.82 8.002 8.002 0 0 0-10.82-3.316 155.874 155.874 0 0 1-10.36 5.008l-65.88 28.888-65.856-28.864a155.434 155.434 0 0 1-72-64.256 161.87 161.87 0 0 1-22.144-81.856V51.933a225.05 225.05 0 0 0 153.6-30.664l6.4-3.912 6.4 3.904a224.914 224.914 0 0 0 153.6 30.672v236.328a8 8 0 0 0 16 0V42.373a7.998 7.998 0 0 0-8.006-7.993z" fill="#1f2d2e"/><path d="M227.593 60.059a8 8 0 0 0-11.417-2.982 175.2 175.2 0 0 1-122.4 20.728 7.999 7.999 0 0 0-9.6 7.848v191.12a135.55 135.55 0 0 0 20.088 70.928 138.932 138.932 0 0 0 65.216 55.696 8.001 8.001 0 0 0 10.472-4.288 8.001 8.001 0 0 0-4.288-10.472 122.988 122.988 0 0 1-57.76-49.304 119.61 119.61 0 0 1-17.728-62.56V95.125a190.951 190.951 0 0 0 124.08-24.256 8 8 0 0 0 3.337-10.81zm197.448 342.284a8 8 0 0 0-10.465-.026l-38.256 38.256c-2.667-.8-5.509-.8-8.176 0l-70.256-70.256a8 8 0 0 0-11.312 11.312l70.248 70.256c-2.369 8.398 2.52 17.127 10.918 19.495 1.442.407 2.935.606 4.434.593 8.837 0 16-7.163 16-16a15.707 15.707 0 0 0-.6-4.088l38.256-38.256a8 8 0 0 0-.791-11.286z" fill="#1f2d2e"/><path d="M353.832 178.317l-32-32a8 8 0 0 0-11.312 0l-98.344 98.344-26.344-26.344a8 8 0 0 0-11.312 0l-32 32a8 8 0 0 0 0 11.312l64 64a8 8 0 0 0 11.312 0l136-136a8 8 0 0 0 0-11.312zM212.176 308.661l-52.656-52.688 20.656-20.688 26.4 26.344a8 8 0 0 0 11.312 0l98.288-98.344 20.72 20.688-124.72 124.688z" fill="#1f2d2e"/></svg>